<svg id="Layer_1" data-name="Layer 1" xmlns="http://www.w3.org/2000/svg" xmlns:xlink="http://www.w3.org/1999/xlink" viewBox="0 0 1754.48 526.63"><defs><style>.cls-1{fill:none;}.cls-2{clip-path:url(#clip-path);}.cls-3{fill:#fff;}</style><clipPath id="clip-path" transform="translate(-114.52 -276.25)"><rect class="cls-1" x="114.52" y="276.25" width="1754.48" height="526.63"/></clipPath></defs><title>logo-tti-for-safetygreen-bg-all-white</title><g class="cls-2"><path class="cls-3" d="M539,676H463.05V487.54H539Zm0-234.82a38,38,0,1,1-38-38,38,38,0,0,1,38,38M442,675.61c-3.66.12-6.36.19-8.12.19a95.92,95.92,0,0,1-45.22-11.14,91.61,91.61,0,0,1-34.08-30.21q-16.25-24.36-16.24-64.57V415.24H408.9v72.13h31.72V562H408.9q0,22.47,7.08,31t26,8.5Zm-121.61,0c-3.65.12-6.35.19-8.12.19A95.91,95.91,0,0,1,267,664.66a91.64,91.64,0,0,1-34.09-30.21q-16.23-24.36-16.23-64.57V415.24H287.3v72.13H319V562H287.3q0,22.47,7.08,31t26,8.5Zm320.8-136c0-145.43-117.89-263.32-263.31-263.32S114.52,394.14,114.52,539.57,232.41,802.88,377.83,802.88,641.14,685,641.14,539.57" transform="translate(-114.52 -276.25)"/></g><polygon class="cls-3" points="707.46 163.25 659.62 163.25 659.62 294.66 635.6 294.66 635.6 163.25 588.17 163.25 588.17 139.23 707.46 139.23 707.46 163.25"/><g class="cls-2"><path class="cls-3" d="M903.9,498.63h-24V474.41H818.69v96.5h-24V450.38h85.21q19.3,0,23.2,16.43a33,33,0,0,1,.82,7.6Z" transform="translate(-114.52 -276.25)"/><path class="cls-3" d="M1013.75,522.66H942.5v24.23h71.25Zm24,48.25H942.5a23.43,23.43,0,0,1-24-24V522.66a24,24,0,0,1,6.52-17q6.53-7,17.5-7h71.25V474.41H918.48v-24h95.27q10.56,0,17.29,6.88a23.53,23.53,0,0,1,6.73,17.15Z" transform="translate(-114.52 -276.25)"/><path class="cls-3" d="M1169.18,570.91h-24v-96.5h-65.09v96.5h-24V450.38h89.11q19.47,0,23.4,16.43a43.87,43.87,0,0,1,.62,7.6Z" transform="translate(-114.52 -276.25)"/><path class="cls-3" d="M1296.69,546.89q0,10.26-6.22,16.83-6.62,7.2-17.8,7.19h-85.22v-24h85.22V522.66h-63.24q-9,0-15.2-4.73a21.56,21.56,0,0,1-8-12.73,25.25,25.25,0,0,1-.82-6.56V474.4a23.86,23.86,0,0,1,6.78-16.73,22.51,22.51,0,0,1,17.25-7.29h79v24h-79v24.24h63.24a23,23,0,0,1,17.19,7,23.45,23.45,0,0,1,6.83,17Z" transform="translate(-114.52 -276.25)"/></g><polygon class="cls-3" points="1312.75 163.25 1264.91 163.25 1264.91 294.66 1240.89 294.66 1240.89 163.25 1193.46 163.25 1193.46 139.23 1312.75 139.23 1312.75 163.25"/><g class="cls-2"><path class="cls-3" d="M1492.56,522.66h-71.24v24.23h71.24Zm24,48.25h-95.28a23.43,23.43,0,0,1-24-24V522.66a24,24,0,0,1,6.52-17q6.54-7,17.5-7h71.25V474.41h-95.27v-24h95.27q10.56,0,17.29,6.88a23.54,23.54,0,0,1,6.74,17.15Z" transform="translate(-114.52 -276.25)"/><path class="cls-3" d="M1648.2,570.91h-24v-96.5h-65.09v96.5h-24V450.38h89.12q19.46,0,23.4,16.43a43.87,43.87,0,0,1,.62,7.6Z" transform="translate(-114.52 -276.25)"/></g><polygon class="cls-3" points="1665.09 294.66 1629.36 294.66 1569.61 250.72 1569.61 294.66 1545.59 294.66 1545.59 174.13 1569.61 174.13 1569.61 218.07 1629.36 174.13 1665.09 174.13 1578.44 234.5 1665.09 294.66"/><rect class="cls-3" x="635.85" y="314.29" width="8.59" height="85.8"/><g class="cls-2"><path class="cls-3" d="M850.45,676.34V643c0-17.3-7.89-23.8-19.62-23.8-11.49,0-19.39,6.62-19.39,22.18v34.94h-8.59v-63.5h8.59v8.24a25.2,25.2,0,0,1,20.44-9.75c15.9,0,27.16,9.4,27.16,31.69v33.32Z" transform="translate(-114.52 -276.25)"/></g><polygon class="cls-3" points="803.38 344.36 803.38 400.09 794.79 400.09 794.79 344.36 781.09 344.36 781.09 336.58 794.79 336.58 794.79 314.29 803.38 314.29 803.38 336.58 817.66 336.58 817.66 344.36 803.38 344.36"/><g class="cls-2"><path class="cls-3" d="M996.27,619.22c-12.08,0-21.72,8.25-24,20.44h48.65c-2.9-12.66-12.31-20.44-24.61-20.44M972,647.44C972.7,660,983.72,670,996.73,670a24.07,24.07,0,0,0,22.17-14.51h8.95c-4.07,12.07-16.49,22.4-30.89,22.4a33.2,33.2,0,0,1-33.55-33.55,32.65,32.65,0,0,1,33-33c18.81,0,33.09,13.58,33.09,36.11Z" transform="translate(-114.52 -276.25)"/><path class="cls-3" d="M1077.76,639.31v37h-8.59v-63.5h8.59v9c3.37-7,8.82-10.1,18-10.56v8.47c-12,1.16-18,7.67-18,19.51" transform="translate(-114.52 -276.25)"/><path class="cls-3" d="M1179.58,676.34V643c0-17.3-7.89-23.8-19.62-23.8-11.5,0-19.39,6.62-19.39,22.18v34.94H1132v-63.5h8.59v8.24a25.18,25.18,0,0,1,20.43-9.75c15.91,0,27.17,9.4,27.17,31.69v33.32Z" transform="translate(-114.52 -276.25)"/><path class="cls-3" d="M1261.89,619.22a24.92,24.92,0,0,0-25,25c0,14.52,11,25.78,25.42,25.78,13.7,0,24.38-11.26,24.38-25.66a24.64,24.64,0,0,0-24.84-25.08m24.84,57.12V665.2c-6.73,9.06-13.7,12.65-24.49,12.65-19.51,0-34-14.16-34-33.08s14.4-33.44,33.43-33.44c11,0,18.82,3.94,25.08,12.77V612.84h8.6v63.5Z" transform="translate(-114.52 -276.25)"/></g><polygon class="cls-3" points="1239.55 344.36 1239.55 400.09 1230.95 400.09 1230.95 344.36 1217.25 344.36 1217.25 336.58 1230.95 336.58 1230.95 314.29 1239.55 314.29 1239.55 336.58 1253.83 336.58 1253.83 344.36 1239.55 344.36"/><path class="cls-3" d="M1404.91,612.84h8.6v63.51h-8.6Zm0-21.6h8.6v14.63h-8.6Z" transform="translate(-114.52 -276.25)"/><g class="cls-2"><path class="cls-3" d="M1486.88,619.22c-14.05,0-24.61,10.8-24.61,25.2,0,14.86,10.44,25.54,25.07,25.54,13.82,0,23.8-10.57,23.8-25.08,0-14.74-10.33-25.66-24.26-25.66m.69,58.63c-19.73,0-34-14.16-34-33.67,0-18.57,14.51-32.85,33.32-32.85,19,0,33,14,33,33.43,0,19-13.7,33.09-32.28,33.09" transform="translate(-114.52 -276.25)"/><path class="cls-3" d="M1607.39,676.34V643c0-17.3-7.9-23.8-19.62-23.8-11.5,0-19.39,6.62-19.39,22.18v34.94h-8.6v-63.5h8.6v8.24a25.18,25.18,0,0,1,20.43-9.75c15.91,0,27.17,9.4,27.17,31.69v33.32Z" transform="translate(-114.52 -276.25)"/><path class="cls-3" d="M1689.7,619.22a24.93,24.93,0,0,0-25,25c0,14.52,11,25.78,25.43,25.78,13.7,0,24.38-11.26,24.38-25.66a24.64,24.64,0,0,0-24.84-25.08m24.84,57.12V665.2c-6.73,9.06-13.7,12.65-24.5,12.65-19.5,0-34-14.16-34-33.08s14.39-33.44,33.43-33.44c11,0,18.81,3.94,25.08,12.77V612.84h8.59v63.5Z" transform="translate(-114.52 -276.25)"/></g><rect class="cls-3" x="1650.99" y="314.29" width="8.59" height="85.8"/><g class="cls-2"><path class="cls-3" d="M1824.37,452h7.48q4.77,0,7-1.38a4.78,4.78,0,0,0,2.2-4.38q0-3.18-2.18-4.42c-1.45-.82-3.93-1.24-7.46-1.24h-7Zm-6.14,21.38V435.47h13a38.25,38.25,0,0,1,9.1.77,9.84,9.84,0,0,1,5.06,3.39,8.86,8.86,0,0,1,2.17,5.76,10.41,10.41,0,0,1-2.93,7.53,11.75,11.75,0,0,1-7.92,3.41v.19q3.54,1,8.84,9.5l4.58,7.39h-7.48l-3.37-5.94a44.66,44.66,0,0,0-5.29-8,7.77,7.77,0,0,0-6-2.22h-3.64v16.14Zm44.92-19.56a29.64,29.64,0,1,0-8.65,20.82,28.37,28.37,0,0,0,8.65-20.82m-64.75,0a35.44,35.44,0,1,1,10.39,25,33.91,33.91,0,0,1-10.39-25" transform="translate(-114.52 -276.25)"/></g></svg>