<svg id="Layer_1" data-name="Layer 1" xmlns="http://www.w3.org/2000/svg" xmlns:xlink="http://www.w3.org/1999/xlink" viewBox="0 0 856.19 856.19"><defs><style>.cls-1,.cls-4{fill:none;}.cls-2{clip-path:url(#clip-path);}.cls-3{fill:#c6d92d;}.cls-4{stroke:#232d39;stroke-width:23px;}.cls-5{fill:#232d39;}</style><clipPath id="clip-path" transform="translate(-532.19 -112.22)"><rect class="cls-1" x="532.97" y="113" width="854.63" height="854.63"/></clipPath></defs><title>logo-tti-circle</title><g class="cls-2"><path class="cls-3" d="M960.28,956.91c230.08,0,416.6-186.51,416.6-416.59s-186.52-416.6-416.6-416.6S543.69,310.24,543.69,540.32,730.2,956.91,960.28,956.91" transform="translate(-532.19 -112.22)"/><circle class="cls-4" cx="428.1" cy="428.1" r="416.6"/><path class="cls-5" d="M808,340.83v115h50.59V574.81H808q0,35.85,11.3,49.39t41.4,13.55V756.09q-8.73.3-12.95.3a153,153,0,0,1-72.12-17.76q-33.87-17.77-54.35-48.18-25.9-38.85-25.9-103V340.83Z" transform="translate(-532.19 -112.22)"/><path class="cls-5" d="M1001.91,340.83v115h50.59V574.81h-50.59q0,35.85,11.3,49.39t41.4,13.55V756.09q-8.73.3-12.95.3a153,153,0,0,1-72.12-17.76q-33.87-17.77-54.35-48.18-25.91-38.85-25.9-103V340.83Z" transform="translate(-532.19 -112.22)"/></g><rect class="cls-5" x="556.08" y="343.93" width="121.1" height="300.5"/><g class="cls-2"><path class="cls-5" d="M1148.82,442.69a60.55,60.55,0,1,0-60.56-60.56,60.54,60.54,0,0,0,60.56,60.56" transform="translate(-532.19 -112.22)"/></g></svg>