<svg id="Layer_1" data-name="Layer 1" xmlns="http://www.w3.org/2000/svg" xmlns:xlink="http://www.w3.org/1999/xlink" viewBox="0 0 1717.7 520.68"><defs><style>.cls-1,.cls-4{fill:none;}.cls-2{clip-path:url(#clip-path);}.cls-3{fill:#c6d92d;}.cls-4{stroke:#232d39;stroke-width:6px;}.cls-5{fill:#232d39;}</style><clipPath id="clip-path" transform="translate(-116.1 -280.13)"><rect class="cls-1" x="112" y="276.03" width="1721.79" height="528.87"/></clipPath></defs><title>logo-tti-1</title><g class="cls-2"><path class="cls-3" d="M376.44,797.81c142.12,0,257.34-115.22,257.34-257.34S518.56,283.13,376.44,283.13,119.1,398.34,119.1,540.47,234.31,797.81,376.44,797.81" transform="translate(-116.1 -280.13)"/><circle class="cls-4" cx="260.34" cy="260.34" r="257.34"/><path class="cls-5" d="M288,419v70.49h31v72.89H288q0,22,6.92,30.26t25.37,8.31v72.52q-5.36.18-7.93.18a93.78,93.78,0,0,1-44.2-10.89,89.28,89.28,0,0,1-33.3-29.52Q219,609.4,219,570.09V419Z" transform="translate(-116.1 -280.13)"/><path class="cls-5" d="M406.8,419v70.49h31v72.89h-31q0,22,6.92,30.26t25.38,8.31v72.52q-5.36.18-7.94.18A93.77,93.77,0,0,1,387,662.72a89.31,89.31,0,0,1-33.31-29.52q-15.87-23.81-15.87-63.11V419Z" transform="translate(-116.1 -280.13)"/></g><rect class="cls-5" x="343.62" y="209.5" width="74.21" height="184.14"/><g class="cls-2"><path class="cls-5" d="M496.82,481.38a37.11,37.11,0,1,0-37.1-37.11,37.11,37.11,0,0,0,37.1,37.11" transform="translate(-116.1 -280.13)"/></g><polygon class="cls-5" points="694.42 162.55 647.66 162.55 647.66 290.98 624.18 290.98 624.18 162.55 577.83 162.55 577.83 139.07 694.42 139.07 694.42 162.55"/><g class="cls-2"><path class="cls-5" d="M890.58,500.47H867.1V476.79H807.3V571.1H783.82V453.31H867.1q18.85,0,22.68,16.05a32.74,32.74,0,0,1,.8,7.43Z" transform="translate(-116.1 -280.13)"/><path class="cls-5" d="M997.94,524H928.31v23.67h69.63Zm23.48,47.15H928.3a22.88,22.88,0,0,1-23.47-23.48V524a23.5,23.5,0,0,1,6.37-16.66q6.38-6.82,17.1-6.82h69.64V476.79H904.83V453.31h93.11q10.32,0,16.9,6.72a23,23,0,0,1,6.58,16.76Z" transform="translate(-116.1 -280.13)"/><path class="cls-5" d="M1149.84,571.1h-23.47V476.79h-63.62V571.1h-23.48V453.31h87.1q19,0,22.87,16.05a43,43,0,0,1,.6,7.43Z" transform="translate(-116.1 -280.13)"/><path class="cls-5" d="M1274.46,547.62q0,10.05-6.07,16.46-6.48,7-17.41,7H1167.7V547.62H1251V523.94h-61.81q-8.82,0-14.85-4.61a21.14,21.14,0,0,1-7.82-12.44,24.65,24.65,0,0,1-.81-6.42V476.79a23.32,23.32,0,0,1,6.63-16.36,22,22,0,0,1,16.85-7.12h77.26v23.48h-77.26v23.68H1251a22.51,22.51,0,0,1,16.8,6.82,22.92,22.92,0,0,1,6.68,16.65Z" transform="translate(-116.1 -280.13)"/></g><polygon class="cls-5" points="1285.98 162.55 1239.23 162.55 1239.23 290.98 1215.75 290.98 1215.75 162.55 1169.39 162.55 1169.39 139.07 1285.98 139.07 1285.98 162.55"/><g class="cls-2"><path class="cls-5" d="M1465.89,524h-69.63v23.67h69.63Zm23.48,47.15h-93.11a22.9,22.9,0,0,1-23.48-23.48V524a23.46,23.46,0,0,1,6.38-16.66q6.38-6.82,17.1-6.82h69.63V476.79h-93.11V453.31h93.11q10.32,0,16.9,6.72a23,23,0,0,1,6.58,16.76Z" transform="translate(-116.1 -280.13)"/><path class="cls-5" d="M1618,571.1h-23.48V476.79h-63.61V571.1h-23.48V453.31h87.09q19,0,22.87,16.05a43,43,0,0,1,.61,7.43Z" transform="translate(-116.1 -280.13)"/></g><polygon class="cls-5" points="1630.33 290.98 1595.41 290.98 1537.02 248.03 1537.02 290.98 1513.54 290.98 1513.54 173.18 1537.02 173.18 1537.02 216.13 1595.41 173.18 1630.33 173.18 1545.64 232.18 1630.33 290.98"/><rect class="cls-5" x="624.44" y="310.16" width="8.4" height="83.85"/><g class="cls-2"><path class="cls-5" d="M838.34,674.15V641.58c0-16.91-7.71-23.26-19.18-23.26-11.23,0-18.95,6.46-18.95,21.67v34.16h-8.39V612.08h8.39v8a24.64,24.64,0,0,1,20-9.53c15.54,0,26.55,9.19,26.55,31v32.57Z" transform="translate(-116.1 -280.13)"/></g><polygon class="cls-5" points="788.16 339.55 788.16 394.02 779.77 394.02 779.77 339.55 766.38 339.55 766.38 331.95 779.77 331.95 779.77 310.16 788.16 310.16 788.16 331.95 802.12 331.95 802.12 339.55 788.16 339.55"/><g class="cls-2"><path class="cls-5" d="M980.85,618.32c-11.8,0-21.22,8.06-23.49,20h47.54c-2.84-12.37-12-20-24-20m-23.72,27.57c.68,12.26,11.46,22,24.17,22A23.54,23.54,0,0,0,1003,653.72h8.74c-4,11.8-16.11,21.9-30.18,21.9a32.46,32.46,0,0,1-32.8-32.79A31.93,31.93,0,0,1,981,610.6c18.38,0,32.34,13.28,32.34,35.29Z" transform="translate(-116.1 -280.13)"/><path class="cls-5" d="M1060.49,638v36.19h-8.39V612.08h8.39v8.85c3.3-6.81,8.63-9.87,17.59-10.33v8.29c-11.69,1.13-17.59,7.49-17.59,19.06" transform="translate(-116.1 -280.13)"/><path class="cls-5" d="M1160,674.15V641.58c0-16.91-7.71-23.26-19.17-23.26-11.24,0-18.95,6.46-18.95,21.67v34.16h-8.4V612.08h8.4v8a24.62,24.62,0,0,1,20-9.53c15.55,0,26.55,9.19,26.55,31v32.57Z" transform="translate(-116.1 -280.13)"/><path class="cls-5" d="M1240.45,618.32a24.36,24.36,0,0,0-24.4,24.39c0,14.19,10.78,25.19,24.85,25.19,13.39,0,23.83-11,23.83-25.07a24.07,24.07,0,0,0-24.28-24.51m24.28,55.83v-10.9c-6.58,8.85-13.39,12.37-23.94,12.37-19.06,0-33.25-13.84-33.25-32.34s14.07-32.68,32.68-32.68c10.78,0,18.38,3.86,24.51,12.48v-11h8.4v62.07Z" transform="translate(-116.1 -280.13)"/></g><polygon class="cls-5" points="1214.44 339.55 1214.44 394.02 1206.04 394.02 1206.04 339.55 1192.65 339.55 1192.65 331.95 1206.04 331.95 1206.04 310.16 1214.44 310.16 1214.44 331.95 1228.4 331.95 1228.4 339.55 1214.44 339.55"/><path class="cls-5" d="M1380.23,612.08h8.4v62.07h-8.4Zm0-21.11h8.4v14.3h-8.4Z" transform="translate(-116.1 -280.13)"/><g class="cls-2"><path class="cls-5" d="M1460.33,618.32c-13.73,0-24,10.55-24,24.62,0,14.53,10.21,25,24.51,25,13.5,0,23.26-10.32,23.26-24.5,0-14.42-10.1-25.08-23.72-25.08m.69,57.3c-19.29,0-33.25-13.84-33.25-32.91,0-18.15,14.18-32.11,32.56-32.11,18.61,0,32.23,13.73,32.23,32.68,0,18.61-13.39,32.34-31.54,32.34" transform="translate(-116.1 -280.13)"/><path class="cls-5" d="M1578.11,674.15V641.58c0-16.91-7.71-23.26-19.18-23.26-11.23,0-18.94,6.46-18.94,21.67v34.16h-8.4V612.08h8.4v8a24.61,24.61,0,0,1,20-9.53c15.54,0,26.55,9.19,26.55,31v32.57Z" transform="translate(-116.1 -280.13)"/><path class="cls-5" d="M1658.55,618.32a24.35,24.35,0,0,0-24.39,24.39c0,14.19,10.78,25.19,24.85,25.19,13.39,0,23.83-11,23.83-25.07a24.08,24.08,0,0,0-24.29-24.51m24.29,55.83v-10.9c-6.58,8.85-13.39,12.37-23.95,12.37-19.06,0-33.24-13.84-33.24-32.34s14.07-32.68,32.68-32.68c10.78,0,18.38,3.86,24.51,12.48v-11h8.39v62.07Z" transform="translate(-116.1 -280.13)"/></g><rect class="cls-5" x="1616.55" y="310.16" width="8.4" height="83.85"/><g class="cls-2"><path class="cls-5" d="M1790.17,454.92h7.31q4.66,0,6.82-1.35a4.69,4.69,0,0,0,2.15-4.28q0-3.1-2.13-4.32c-1.42-.8-3.85-1.21-7.29-1.21h-6.86Zm-6,20.89V438.73h12.71a37.16,37.16,0,0,1,8.89.76,9.57,9.57,0,0,1,4.94,3.31,8.6,8.6,0,0,1,2.13,5.62,10.26,10.26,0,0,1-2.86,7.37,11.48,11.48,0,0,1-7.75,3.33v.18c2.31.68,5.2,3.77,8.64,9.29l4.48,7.22h-7.31l-3.29-5.8a44.91,44.91,0,0,0-5.17-7.8,7.58,7.58,0,0,0-5.85-2.17h-3.57v15.77Zm43.89-19.11a28.94,28.94,0,1,0-8.45,20.35,27.7,27.7,0,0,0,8.45-20.35m-63.28,0a34.62,34.62,0,1,1,10.15,24.39,33.15,33.15,0,0,1-10.15-24.39" transform="translate(-116.1 -280.13)"/></g></svg>