<svg id="Layer_1" data-name="Layer 1" xmlns="http://www.w3.org/2000/svg" xmlns:xlink="http://www.w3.org/1999/xlink" viewBox="0 0 1722.01 516.88"><defs><style>.cls-1{fill:none;}.cls-2{clip-path:url(#clip-path);}.cls-3{fill:#c6d92d;}.cls-4{fill:#232d39;}</style><clipPath id="clip-path" transform="translate(-111.99 -285.29)"><rect class="cls-1" x="111.99" y="285.29" width="1722.01" height="516.88"/></clipPath></defs><title>logo-tti-for-midnight-blue-bg-safetygreen</title><g class="cls-2"><path class="cls-3" d="M370.43,802.17c142.73,0,258.44-115.71,258.44-258.44S513.16,285.29,370.43,285.29,112,401,112,543.73,227.7,802.17,370.43,802.17" transform="translate(-111.99 -285.29)"/><path class="cls-4" d="M281.58,421.71V492.5h31.13v73.2H281.58q0,22,6.95,30.39T314,604.43v72.83c-3.59.12-6.24.18-8,.18a94.17,94.17,0,0,1-44.38-10.93,89.82,89.82,0,0,1-33.45-29.65q-15.94-23.91-15.94-63.38V421.71Z" transform="translate(-111.99 -285.29)"/><path class="cls-4" d="M400.93,421.71V492.5h31.13v73.2H400.93q0,22,6.95,30.39t25.48,8.34v72.83c-3.59.12-6.24.18-8,.18A94.17,94.17,0,0,1,381,666.51a89.82,89.82,0,0,1-33.45-29.65q-15.94-23.91-15.94-63.38V421.71Z" transform="translate(-111.99 -285.29)"/></g><rect class="cls-4" x="342.07" y="207.38" width="74.52" height="184.93"/><g class="cls-2"><path class="cls-4" d="M491.33,484.39a37.26,37.26,0,1,0-37.26-37.27,37.27,37.27,0,0,0,37.26,37.27" transform="translate(-111.99 -285.29)"/></g><polygon class="cls-3" points="694.37 160.23 647.41 160.23 647.41 289.2 623.83 289.2 623.83 160.23 577.28 160.23 577.28 136.65 694.37 136.65 694.37 160.23"/><g class="cls-2"><path class="cls-3" d="M886.77,503.56H863.19V479.78H803.13v94.71H779.55V456.2h83.64q18.94,0,22.77,16.12a32.43,32.43,0,0,1,.81,7.46Z" transform="translate(-111.99 -285.29)"/><path class="cls-3" d="M994.58,527.14H924.65v23.78h69.93Zm23.58,47.35H924.65a23,23,0,0,1-23.58-23.58V527.14a23.55,23.55,0,0,1,6.41-16.73q6.4-6.86,17.17-6.85h69.93V479.78H901.07V456.2h93.51q10.36,0,17,6.75a23.08,23.08,0,0,1,6.61,16.83Z" transform="translate(-111.99 -285.29)"/><path class="cls-3" d="M1147.14,574.49h-23.58V479.78h-63.89v94.71H1036.1V456.2h87.46q19.11,0,23,16.12a43.32,43.32,0,0,1,.61,7.46Z" transform="translate(-111.99 -285.29)"/><path class="cls-3" d="M1272.28,550.92q0,10.08-6.1,16.52-6.5,7-17.48,7.06h-83.63V550.92h83.63V527.14h-62.07a23.78,23.78,0,0,1-14.91-4.64,21.24,21.24,0,0,1-7.86-12.49,24.89,24.89,0,0,1-.81-6.45V479.78a23.42,23.42,0,0,1,6.66-16.43,22.07,22.07,0,0,1,16.92-7.15h77.59v23.58h-77.59v23.78h62.07a22.64,22.64,0,0,1,16.88,6.85,23,23,0,0,1,6.7,16.73Z" transform="translate(-111.99 -285.29)"/></g><polygon class="cls-3" points="1288.45 160.23 1241.5 160.23 1241.5 289.2 1217.92 289.2 1217.92 160.23 1171.37 160.23 1171.37 136.65 1288.45 136.65 1288.45 160.23"/><g class="cls-2"><path class="cls-3" d="M1464.53,527.14H1394.6v23.78h69.93Zm23.58,47.35H1394.6A23,23,0,0,1,1371,550.91V527.14a23.55,23.55,0,0,1,6.41-16.73q6.4-6.86,17.17-6.85h69.93V479.78H1371V456.2h93.51q10.37,0,17,6.75a23.08,23.08,0,0,1,6.61,16.83Z" transform="translate(-111.99 -285.29)"/><path class="cls-3" d="M1617.29,574.49h-23.58V479.78h-63.89v94.71h-23.57V456.2h87.46q19.11,0,23,16.12a43.32,43.32,0,0,1,.61,7.46Z" transform="translate(-111.99 -285.29)"/></g><polygon class="cls-3" points="1634.27 289.2 1599.2 289.2 1540.56 246.08 1540.56 289.2 1516.98 289.2 1516.98 170.91 1540.56 170.91 1540.56 214.04 1599.2 170.91 1634.27 170.91 1549.22 230.16 1634.27 289.2"/><rect class="cls-3" x="624.09" y="308.47" width="8.43" height="84.21"/><g class="cls-2"><path class="cls-3" d="M834.31,678V645.27c0-17-7.75-23.36-19.26-23.36-11.28,0-19,6.5-19,21.77V678h-8.44V615.64H796v8.09a24.71,24.71,0,0,1,20.05-9.57c15.62,0,26.67,9.23,26.67,31.11V678Z" transform="translate(-111.99 -285.29)"/></g><polygon class="cls-3" points="788.51 337.99 788.51 392.69 780.08 392.69 780.08 337.99 766.63 337.99 766.63 330.35 780.08 330.35 780.08 308.47 788.51 308.47 788.51 330.35 802.53 330.35 802.53 337.99 788.51 337.99"/><g class="cls-2"><path class="cls-3" d="M977.42,621.91c-11.85,0-21.31,8.09-23.59,20.06h47.75c-2.85-12.42-12.08-20.06-24.16-20.06M953.6,649.6c.69,12.31,11.51,22.11,24.27,22.11a23.65,23.65,0,0,0,21.77-14.24h8.78c-4,11.84-16.19,22-30.32,22a32.59,32.59,0,0,1-32.93-32.93,32.06,32.06,0,0,1,32.36-32.37c18.46,0,32.48,13.34,32.48,35.44Z" transform="translate(-111.99 -285.29)"/><path class="cls-3" d="M1057.41,641.63V678H1049V615.64h8.44v8.89c3.3-6.84,8.66-9.91,17.66-10.37v8.32c-11.74,1.14-17.66,7.52-17.66,19.15" transform="translate(-111.99 -285.29)"/><path class="cls-3" d="M1157.34,678V645.27c0-17-7.75-23.36-19.26-23.36-11.28,0-19,6.5-19,21.77V678h-8.43V615.64h8.43v8.09a24.72,24.72,0,0,1,20.06-9.57c15.61,0,26.66,9.23,26.66,31.11V678Z" transform="translate(-111.99 -285.29)"/><path class="cls-3" d="M1238.13,621.91a24.46,24.46,0,0,0-24.5,24.5c0,14.25,10.82,25.3,24.95,25.3,13.45,0,23.93-11.05,23.93-25.18a24.18,24.18,0,0,0-24.38-24.62M1262.51,678V667c-6.61,8.89-13.44,12.42-24,12.42-19.14,0-33.39-13.9-33.39-32.48s14.13-32.82,32.82-32.82c10.82,0,18.46,3.88,24.61,12.54V615.64H1271V678Z" transform="translate(-111.99 -285.29)"/></g><polygon class="cls-3" points="1216.6 337.99 1216.6 392.69 1208.17 392.69 1208.17 337.99 1194.72 337.99 1194.72 330.35 1208.17 330.35 1208.17 308.47 1216.6 308.47 1216.6 330.35 1230.62 330.35 1230.62 337.99 1216.6 337.99"/><path class="cls-3" d="M1378.51,615.64h8.43V678h-8.43Zm0-21.19h8.43v14.36h-8.43Z" transform="translate(-111.99 -285.29)"/><g class="cls-2"><path class="cls-3" d="M1459,621.91c-13.79,0-24.16,10.6-24.16,24.73,0,14.59,10.26,25.07,24.62,25.07,13.56,0,23.36-10.37,23.36-24.61,0-14.48-10.14-25.19-23.82-25.19m.69,57.55c-19.38,0-33.39-13.9-33.39-33.05,0-18.23,14.24-32.25,32.7-32.25,18.69,0,32.37,13.79,32.37,32.82,0,18.69-13.45,32.48-31.68,32.48" transform="translate(-111.99 -285.29)"/><path class="cls-3" d="M1577.23,678V645.27c0-17-7.75-23.36-19.26-23.36-11.28,0-19,6.5-19,21.77V678h-8.43V615.64h8.43v8.09a24.72,24.72,0,0,1,20.06-9.57c15.61,0,26.66,9.23,26.66,31.11V678Z" transform="translate(-111.99 -285.29)"/><path class="cls-3" d="M1658,621.91a24.46,24.46,0,0,0-24.49,24.5c0,14.25,10.82,25.3,25,25.3,13.45,0,23.93-11.05,23.93-25.18A24.18,24.18,0,0,0,1658,621.91M1682.4,678V667c-6.61,8.89-13.44,12.42-24,12.42-19.14,0-33.39-13.9-33.39-32.48s14.13-32.82,32.82-32.82c10.82,0,18.46,3.88,24.61,12.54V615.64h8.44V678Z" transform="translate(-111.99 -285.29)"/></g><rect class="cls-3" x="1620.43" y="308.47" width="8.43" height="84.21"/><g class="cls-2"><path class="cls-3" d="M1790.19,457.81h7.35q4.68,0,6.84-1.35a4.7,4.7,0,0,0,2.16-4.3q0-3.12-2.14-4.33t-7.32-1.22h-6.89Zm-6,21V441.56h12.77a37.49,37.49,0,0,1,8.93.76,9.6,9.6,0,0,1,5,3.32,8.64,8.64,0,0,1,2.14,5.65,10.28,10.28,0,0,1-2.87,7.4,11.6,11.6,0,0,1-7.79,3.35v.18q3.5,1,8.68,9.32l4.5,7.26h-7.34l-3.31-5.83a43.9,43.9,0,0,0-5.19-7.83,7.61,7.61,0,0,0-5.88-2.18h-3.58V478.8Zm44.09-19.2a29.09,29.09,0,1,0-8.5,20.44,27.81,27.81,0,0,0,8.5-20.44m-63.55,0a34.76,34.76,0,1,1,10.19,24.5,33.28,33.28,0,0,1-10.19-24.5" transform="translate(-111.99 -285.29)"/></g></svg>