<svg id="Layer_1" data-name="Layer 1" xmlns="http://www.w3.org/2000/svg" xmlns:xlink="http://www.w3.org/1999/xlink" viewBox="0 0 1722 516.88"><defs><style>.cls-1{fill:none;}.cls-2{clip-path:url(#clip-path);}.cls-3{fill:#232d39;}.cls-4{fill:#c6d92d;}</style><clipPath id="clip-path" transform="translate(-112 -282.61)"><rect class="cls-1" x="112" y="282.61" width="1722" height="516.88"/></clipPath></defs><title>logo-tti-for-safetygreen-bg-midnight-blue</title><g class="cls-2"><path class="cls-3" d="M370.44,799.49c142.73,0,258.43-115.71,258.43-258.44S513.17,282.61,370.44,282.61,112,398.32,112,541.05,227.71,799.49,370.44,799.49" transform="translate(-112 -282.61)"/><path class="cls-4" d="M281.59,419v70.79h31.13V563H281.59q0,22.07,6.94,30.4T314,601.75v72.82c-3.59.13-6.24.19-8,.19a94.21,94.21,0,0,1-44.39-10.93,89.82,89.82,0,0,1-33.45-29.65q-15.93-23.91-15.93-63.38V419Z" transform="translate(-112 -282.61)"/><path class="cls-4" d="M400.94,419v70.79h31.13V563H400.94q0,22.07,6.94,30.4t25.49,8.34v72.82c-3.59.13-6.24.19-8,.19A94.21,94.21,0,0,1,381,663.83a89.82,89.82,0,0,1-33.45-29.65q-15.93-23.91-15.93-63.38V419Z" transform="translate(-112 -282.61)"/></g><rect class="cls-4" x="342.07" y="207.38" width="74.52" height="184.92"/><g class="cls-2"><path class="cls-4" d="M491.34,481.71a37.27,37.27,0,1,0-37.27-37.27,37.27,37.27,0,0,0,37.27,37.27" transform="translate(-112 -282.61)"/></g><polygon class="cls-3" points="694.36 160.23 647.41 160.23 647.41 289.2 623.83 289.2 623.83 160.23 577.28 160.23 577.28 136.65 694.36 136.65 694.36 160.23"/><g class="cls-2"><path class="cls-3" d="M886.77,500.87H863.19V477.1H803.14v94.71H779.56V453.52h83.63q18.94,0,22.78,16.12a33,33,0,0,1,.8,7.46Z" transform="translate(-112 -282.61)"/><path class="cls-3" d="M994.59,524.46H924.66v23.77h69.93Zm23.57,47.35h-93.5a23,23,0,0,1-23.58-23.58V524.46a23.59,23.59,0,0,1,6.4-16.73q6.4-6.86,17.18-6.86h69.93V477.1H901.08V453.52h93.51q10.36,0,17,6.75a23.11,23.11,0,0,1,6.6,16.83Z" transform="translate(-112 -282.61)"/><path class="cls-3" d="M1147.14,571.81h-23.58V477.1h-63.88v94.71H1036.1V453.52h87.46q19.11,0,23,16.12a43.32,43.32,0,0,1,.61,7.46Z" transform="translate(-112 -282.61)"/><path class="cls-3" d="M1272.29,548.23q0,10.08-6.1,16.53-6.51,7.05-17.48,7h-83.64V548.23h83.64V524.45h-62.07q-8.88,0-14.92-4.63a21.24,21.24,0,0,1-7.86-12.5,25.19,25.19,0,0,1-.8-6.44V477.09a23.45,23.45,0,0,1,6.65-16.42,22.1,22.1,0,0,1,16.93-7.15h77.58v23.57h-77.58v23.79h62.07a22.62,22.62,0,0,1,16.87,6.85,23,23,0,0,1,6.71,16.72Z" transform="translate(-112 -282.61)"/></g><polygon class="cls-3" points="1288.45 160.23 1241.5 160.23 1241.5 289.2 1217.92 289.2 1217.92 160.23 1171.36 160.23 1171.36 136.65 1288.45 136.65 1288.45 160.23"/><g class="cls-2"><path class="cls-3" d="M1464.53,524.46h-69.92v23.77h69.92Zm23.58,47.35H1394.6A23,23,0,0,1,1371,548.23V524.46a23.59,23.59,0,0,1,6.4-16.73q6.4-6.86,17.17-6.86h69.93V477.1H1371V453.52h93.5q10.37,0,17,6.75a23.08,23.08,0,0,1,6.61,16.83Z" transform="translate(-112 -282.61)"/><path class="cls-3" d="M1617.29,571.81h-23.58V477.1h-63.88v94.71h-23.58V453.52h87.46q19.11,0,23,16.12a43.32,43.32,0,0,1,.61,7.46Z" transform="translate(-112 -282.61)"/></g><polygon class="cls-3" points="1634.26 289.2 1599.2 289.2 1540.55 246.07 1540.55 289.2 1516.97 289.2 1516.97 170.91 1540.55 170.91 1540.55 214.03 1599.2 170.91 1634.26 170.91 1549.22 230.15 1634.26 289.2"/><rect class="cls-3" x="624.08" y="308.47" width="8.43" height="84.21"/><g class="cls-2"><path class="cls-3" d="M834.31,675.29v-32.7c0-17-7.75-23.36-19.26-23.36-11.28,0-19,6.49-19,21.76v34.3h-8.43V613H796v8.09a24.72,24.72,0,0,1,20.06-9.57c15.61,0,26.66,9.23,26.66,31.11v32.7Z" transform="translate(-112 -282.61)"/></g><polygon class="cls-3" points="788.51 337.99 788.51 392.69 780.08 392.69 780.08 337.99 766.63 337.99 766.63 330.35 780.08 330.35 780.08 308.47 788.51 308.47 788.51 330.35 802.52 330.35 802.52 337.99 788.51 337.99"/><g class="cls-2"><path class="cls-3" d="M977.42,619.23c-11.85,0-21.31,8.09-23.59,20.06h47.75c-2.85-12.42-12.08-20.06-24.16-20.06m-23.81,27.69c.68,12.31,11.51,22.11,24.27,22.11a23.63,23.63,0,0,0,21.76-14.25h8.78c-4,11.85-16.18,22-30.31,22a32.6,32.6,0,0,1-32.94-32.94,32.06,32.06,0,0,1,32.37-32.36c18.46,0,32.47,13.33,32.47,35.44Z" transform="translate(-112 -282.61)"/><path class="cls-3" d="M1057.41,638.94v36.35H1049V613h8.43v8.89c3.31-6.84,8.66-9.91,17.66-10.37v8.32c-11.74,1.14-17.66,7.52-17.66,19.14" transform="translate(-112 -282.61)"/><path class="cls-3" d="M1157.34,675.29v-32.7c0-17-7.74-23.36-19.25-23.36-11.29,0-19,6.49-19,21.76v34.3h-8.44V613h8.44v8.09a24.71,24.71,0,0,1,20-9.57c15.61,0,26.67,9.23,26.67,31.11v32.7Z" transform="translate(-112 -282.61)"/><path class="cls-3" d="M1238.13,619.23a24.46,24.46,0,0,0-24.5,24.5c0,14.24,10.83,25.3,24.95,25.3,13.45,0,23.94-11.06,23.94-25.19a24.18,24.18,0,0,0-24.39-24.61m24.39,56.06V664.36c-6.61,8.89-13.45,12.42-24,12.42-19.14,0-33.39-13.91-33.39-32.48s14.13-32.82,32.82-32.82c10.83,0,18.46,3.88,24.62,12.54V613H1271v62.33Z" transform="translate(-112 -282.61)"/></g><polygon class="cls-3" points="1216.6 337.99 1216.6 392.69 1208.16 392.69 1208.16 337.99 1194.72 337.99 1194.72 330.35 1208.16 330.35 1208.16 308.47 1216.6 308.47 1216.6 330.35 1230.62 330.35 1230.62 337.99 1216.6 337.99"/><path class="cls-3" d="M1378.51,613h8.43V675.3h-8.43Zm0-21.19h8.43v14.36h-8.43Z" transform="translate(-112 -282.61)"/><g class="cls-2"><path class="cls-3" d="M1459,619.23c-13.79,0-24.15,10.6-24.15,24.73,0,14.58,10.25,25.07,24.61,25.07,13.56,0,23.36-10.37,23.36-24.62,0-14.47-10.14-25.18-23.82-25.18m.69,57.55c-19.37,0-33.39-13.91-33.39-33,0-18.23,14.24-32.25,32.7-32.25,18.69,0,32.37,13.79,32.37,32.82,0,18.69-13.45,32.48-31.68,32.48" transform="translate(-112 -282.61)"/><path class="cls-3" d="M1577.23,675.29v-32.7c0-17-7.75-23.36-19.26-23.36-11.28,0-19,6.49-19,21.76v34.3h-8.43V613h8.43v8.09a24.72,24.72,0,0,1,20.06-9.57c15.61,0,26.66,9.23,26.66,31.11v32.7Z" transform="translate(-112 -282.61)"/><path class="cls-3" d="M1658,619.23a24.46,24.46,0,0,0-24.5,24.5c0,14.24,10.82,25.3,25,25.3,13.45,0,23.93-11.06,23.93-25.19A24.17,24.17,0,0,0,1658,619.23m24.38,56.06V664.36c-6.61,8.89-13.44,12.42-24,12.42-19.14,0-33.39-13.91-33.39-32.48s14.13-32.82,32.82-32.82c10.82,0,18.46,3.88,24.61,12.54V613h8.44v62.33Z" transform="translate(-112 -282.61)"/></g><rect class="cls-3" x="1620.42" y="308.47" width="8.43" height="84.21"/><g class="cls-2"><path class="cls-3" d="M1790.19,455.13h7.35q4.68,0,6.84-1.35a4.7,4.7,0,0,0,2.16-4.3q0-3.12-2.14-4.34t-7.32-1.21h-6.89Zm-6,21V438.88h12.76a37.49,37.49,0,0,1,8.93.76,9.6,9.6,0,0,1,5,3.32,8.64,8.64,0,0,1,2.14,5.65,10.3,10.3,0,0,1-2.87,7.4,11.58,11.58,0,0,1-7.79,3.35v.18q3.5,1,8.68,9.32l4.5,7.26h-7.34l-3.31-5.83a43.9,43.9,0,0,0-5.19-7.83,7.61,7.61,0,0,0-5.88-2.18h-3.58v15.84Zm44.08-19.2a29.09,29.09,0,1,0-8.5,20.44,27.8,27.8,0,0,0,8.5-20.44m-63.55,0a34.76,34.76,0,1,1,10.19,24.5,33.28,33.28,0,0,1-10.19-24.5" transform="translate(-112 -282.61)"/></g></svg>